M48
; DRILL file {KiCad (5.1.5)-3} date 13/02/2020 11:13:57
; FORMAT={-:-/ absolute / inch / decimal}
; #@! TF.CreationDate,2020-02-13T11:13:57+01:00
; #@! TF.GenerationSoftware,Kicad,Pcbnew,(5.1.5)-3
; #@! TF.FileFunction,Plated,1,2,PTH
FMAT,2
INCH
T1C0.0157
T2C0.0315
T3C0.0374
T4C0.0394
T5C0.0433
T6C0.0450
T7C0.0550
%
G90
G05
T1
X5.9055Y-1.5354
X5.9055Y-1.7323
X5.9055Y-1.9291
X5.9055Y-2.126
X5.9055Y-2.3228
X5.9055Y-2.5197
X5.9055Y-2.7165
X5.9055Y-2.9134
X5.9055Y-3.1102
X5.9055Y-3.3071
X5.9055Y-3.5039
X5.9055Y-3.7008
X5.9055Y-3.8976
X5.9055Y-4.0945
X5.9055Y-4.311
X5.9055Y-4.4882
X5.9055Y-4.685
X5.9055Y-4.8819
X5.9055Y-5.0787
X6.0264Y-2.3949
X6.074Y-4.2898
X6.0937Y-1.9941
X6.0984Y-4.6717
X6.1024Y-1.5354
X6.1024Y-5.0787
X6.1067Y-4.3394
X6.1205Y-2.6642
X6.1567Y-4.6626
X6.1831Y-4.7181
X6.1935Y-4.2711
X6.2319Y-2.3646
X6.2441Y-3.552
X6.2504Y-3.8508
X6.2571Y-2.2567
X6.2795Y-2.1457
X6.2992Y-5.0787
X6.3118Y-3.576
X6.3118Y-3.6291
X6.313Y-4.6626
X6.3213Y-2.7539
X6.3394Y-1.8528
X6.3398Y-2.3894
X6.3512Y-2.4681
X6.3583Y-4.3898
X6.3591Y-4.1563
X6.3854Y-2.7331
X6.3858Y-3.489
X6.3976Y-4.8228
X6.4093Y-4.4884
X6.4114Y-4.2291
X6.4173Y-2.0276
X6.4173Y-4.5669
X6.4195Y-2.699
X6.4299Y-4.7311
X6.4417Y-2.5878
X6.4567Y-2.4606
X6.4665Y-2.3031
X6.4961Y-1.5354
X6.4961Y-4.6654
X6.4961Y-5.0787
X6.5157Y-3.5039
X6.5157Y-3.6024
X6.5335Y-2.6717
X6.5354Y-3.7992
X6.5551Y-4.3701
X6.5748Y-1.6142
X6.5768Y-2.4472
X6.5878Y-3.2752
X6.5945Y-3.5039
X6.6142Y-1.6142
X6.6142Y-4.1339
X6.6142Y-4.4488
X6.6236Y-4.8614
X6.624Y-3.7894
X6.6244Y-2.185
X6.6272Y-1.776
X6.6272Y-1.8764
X6.6272Y-1.9866
X6.6272Y-2.0795
X6.6535Y-1.6142
X6.6535Y-3.3661
X6.6642Y-4.2291
X6.6697Y-2.235
X6.6836Y-4.809
X6.6843Y-4.502
X6.6929Y-1.5354
X6.6929Y-2.2933
X6.6929Y-2.7165
X6.6929Y-2.9528
X6.7173Y-1.6957
X6.7913Y-2.6781
X6.7913Y-4.0157
X6.8094Y-4.698
X6.8189Y-3.1654
X6.8209Y-2.9232
X6.8209Y-3.7992
X6.8217Y-4.8291
X6.8307Y-3.248
X6.8327Y-1.6906
X6.8453Y-2.2224
X6.8455Y-2.7018
X6.8618Y-3.8878
X6.8773Y-3.7832
X6.8807Y-3.0358
X6.8898Y-1.5354
X6.8898Y-5.0787
X6.9201Y-2.4634
X6.9291Y-3.7673
X6.9341Y-3.5728
X6.9559Y-1.6906
X6.9587Y-3.8976
X6.9591Y-4.2413
X6.9709Y-2.4634
X6.9929Y-2.8441
X6.9929Y-2.8835
X6.9933Y-4.8213
X6.9945Y-4.1268
X7.0079Y-3.0217
X7.0493Y-3.9604
X7.0657Y-4.7091
X7.0665Y-3.7913
X7.0666Y-3.5076
X7.0768Y-3.6909
X7.0866Y-2.9134
X7.0866Y-3.3268
X7.0866Y-5.0787
X7.0906Y-4.4878
X7.0921Y-2.2803
X7.0921Y-3.9709
X7.0941Y-2.4185
X7.0965Y-4.3303
X7.1059Y-3.5051
X7.1063Y-2.8543
X7.1307Y-4.0264
X7.1358Y-1.7224
X7.1358Y-3.6417
X7.1437Y-3.2402
X7.1457Y-3.8189
X7.1654Y-1.6535
X7.1654Y-1.6929
X7.1756Y-3.689
X7.1803Y-4.072
X7.1994Y-3.8214
X7.2047Y-3.1693
X7.2075Y-3.4276
X7.2146Y-2.9528
X7.222Y-3.0295
X7.2382Y-4.7079
X7.248Y-2.1811
X7.2539Y-2.9528
X7.2563Y-3.8264
X7.2598Y-3.4866
X7.2638Y-4.0846
X7.2652Y-3.6797
X7.2835Y-2.185
X7.2835Y-5.0787
X7.2951Y-3.4692
X7.3024Y-4.2858
X7.3031Y-3.0709
X7.3031Y-3.1693
X7.3031Y-4.5079
X7.3031Y-4.6457
X7.3161Y-4.7469
X7.3294Y-3.4498
X7.3343Y-3.8929
X7.335Y-2.4335
X7.3488Y-4.152
X7.3494Y-3.5827
X7.3506Y-4.0667
X7.3602Y-1.9016
X7.3969Y-4.0531
X7.4016Y-3.7906
X7.4051Y-3.7492
X7.4193Y-3.6846
X7.4213Y-3.563
X7.4213Y-4.8228
X7.4409Y-4.4094
X7.4413Y-3.8882
X7.4425Y-1.5118
X7.4559Y-2.4783
X7.4606Y-4.3406
X7.463Y-4.039
X7.4681Y-1.9122
X7.4878Y-2.3028
X7.4941Y-3.4043
X7.5197Y-2.4803
X7.5197Y-2.5394
X7.5197Y-4.5079
X7.5197Y-4.5669
X7.5394Y-4.4291
X7.5469Y-3.8764
X7.5476Y-4.15
X7.5602Y-3.8189
X7.5713Y-3.6925
X7.587Y-4.8539
X7.5984Y-4.7047
X7.6606Y-3.3705
X7.6654Y-3.0587
X7.6736Y-2.7429
X7.6772Y-5.0787
X7.6839Y-2.4988
X7.689Y-3.5618
X7.7047Y-4.152
X7.7088Y-3.4254
X7.7106Y-4.0496
X7.7392Y-4.6457
X7.7508Y-2.4988
X7.752Y-3.7114
X7.7531Y-1.5016
X7.7559Y-3.3937
X7.7657Y-4.9114
X7.7689Y-2.7933
X7.7874Y-3.4252
X7.8177Y-2.4988
X7.8465Y-2.9988
X7.8504Y-3.5878
X7.8583Y-2.8504
X7.874Y-4.9114
X7.8953Y-2.5291
X7.9945Y-2.5528
X8.011Y-2.1709
X8.0165Y-2.2917
X8.0583Y-2.7059
X8.0709Y-5.0787
X8.1594Y-2.6854
X8.1614Y-1.5051
X8.2677Y-5.0787
X8.2862Y-3.4205
X8.2921Y-4.6
X8.2949Y-3.9961
X8.2953Y-1.6335
X8.2957Y-2.8165
X8.337Y-2.2161
X8.4646Y-1.5354
X8.4646Y-5.0787
X8.6614Y-1.5354
X8.6614Y-5.0787
X8.8583Y-1.5354
X8.8583Y-2.126
X8.8583Y-2.7165
X8.8583Y-3.3071
X8.8583Y-3.8976
X8.8583Y-4.4882
X8.8583Y-5.0787
X8.9894Y-4.0472
X8.9945Y-2.2874
X8.998Y-1.6835
X8.998Y-3.4756
X8.998Y-4.6228
X9.0016Y-2.8709
T2
X6.6047Y-3.7098
X6.6047Y-3.902
T3
X6.1417Y-2.0709
X6.1417Y-2.1693
X6.1417Y-2.2677
X6.1417Y-2.3661
X6.1417Y-3.802
X6.1417Y-3.9004
X6.1417Y-3.9988
X6.1417Y-4.0972
T4
X7.7657Y-5.0394
X7.8642Y-5.0394
X7.9035Y-3.2087
X7.9035Y-3.3087
X7.4012Y-2.9295
X7.4012Y-3.0295
X7.4012Y-3.1295
X7.4012Y-3.2295
X7.4012Y-3.3295
X7.5012Y-2.9295
X7.5012Y-3.0295
X7.5012Y-3.1295
X7.5012Y-3.2295
X7.5012Y-3.3295
X7.0669Y-1.5157
X7.1654Y-1.5157
T5
X8.3858Y-1.7126
X8.3858Y-1.8126
X8.3858Y-1.9126
X8.3858Y-2.3031
X8.3858Y-2.4031
X8.3858Y-2.5031
X8.3858Y-2.8937
X8.3858Y-2.9937
X8.3858Y-3.0937
X8.3858Y-4.0748
X8.3858Y-4.1748
X8.3858Y-4.2748
X8.3858Y-3.4843
X8.3858Y-3.5843
X8.3858Y-3.6843
X8.3858Y-4.6654
X8.3858Y-4.7654
X8.3858Y-4.8654
T6
X6.2354Y-5.0
X6.3354Y-5.0
X6.4354Y-5.0
X6.5354Y-5.0
X7.026Y-5.0
X7.126Y-5.0
X7.226Y-5.0
X7.326Y-5.0
T7
X6.1339Y-2.7766
X6.1339Y-2.9766
X8.7795Y-4.6654
X8.7795Y-4.8654
X8.7795Y-2.8937
X8.7795Y-3.0937
X6.1329Y-3.2756
X6.1329Y-3.4756
X8.7795Y-1.7126
X8.7795Y-1.9126
X8.7795Y-4.0748
X8.7795Y-4.2748
X8.7795Y-3.4843
X8.7795Y-3.6843
X8.7795Y-2.3031
X8.7795Y-2.5031
T0
M30
